Coordinates
version=1
nRows=14
nColumns=24
inDegrees=yes

Units are S.I. units (second, meters, Newtons, ...)
Angles are in degrees.

endheader
time	pelvis_tilt	pelvis_list	pelvis_rotation	pelvis_tx	pelvis_ty	pelvis_tz	hip_flexion_r	hip_adduction_r	hip_rotation_r	knee_angle_r	ankle_angle_r	subtalar_angle_r	mtp_angle_r	hip_flexion_l	hip_adduction_l	hip_rotation_l	knee_angle_l	ankle_angle_l	subtalar_angle_l	mtp_angle_l	lumbar_extension	lumbar_bending	lumbar_rotation
      0.87433333	      6.10945219	     -1.24625964	      4.40542980	     -0.38321124	      0.92218622	      0.30658840	      2.12890367	      9.13513241	     -3.06718623	    -19.02161311	     12.17545300	     -2.20633593	      3.30995532	      9.07685669	     -6.28329401	     -5.33463196	    -58.04516014	     10.01638831	     -4.55830332	      5.23631916	    -10.95238817	      4.15846520	     -0.27914504
      0.87850000	      6.14832208	     -1.13025181	      4.05297336	     -0.37832051	      0.92310060	      0.30724561	      1.46870562	      9.04333741	     -2.78588016	    -18.50508529	     12.17406536	     -2.01147143	      3.33505054	      9.48206502	     -6.13531095	     -5.65572472	    -57.18368904	     10.09914810	     -4.97890621	      5.12860083	    -11.03995265	      3.99317863	      0.02065410
      0.88266667	      6.18279049	     -1.02787014	      3.70221712	     -0.37344911	      0.92394970	      0.30790446	      0.81451660	      8.95835059	     -2.52254354	    -17.97683003	     12.15177668	     -1.80594249	      3.40952883	      9.88714952	     -6.00348674	     -5.96647032	    -56.30134885	     10.18023060	     -5.37250682	      4.83001415	    -11.12101345	      3.83638112	      0.50721656
      0.88683333	      6.22586131	     -0.91226120	      3.32488475	     -0.36860248	      0.92476212	      0.30861181	      0.16225068	      8.85589600	     -2.21392047	    -17.47491201	     12.17936020	     -1.62715012	      3.45518372	     10.26102847	     -5.86586616	     -6.31242734	    -55.37437738	     10.18297339	     -5.82605545	      4.65060812	    -11.21967863	      3.64954920	      0.73353765
      0.89100000	      6.27106679	     -0.80889899	      2.93125286	     -0.36375655	      0.92552035	      0.30932638	     -0.48141248	      8.75603236	     -1.91240170	    -16.98896226	     12.18847866	     -1.43471462	      3.50095002	     10.61653729	     -5.75078384	     -6.68357238	    -54.41788523	     10.17668671	     -6.26081660	      4.47631832	    -11.30953805	      3.48741754	      1.03973499
      0.89516667	      6.31010862	     -0.71146147	      2.53473054	     -0.35892135	      0.92620730	      0.31005338	     -1.11253721	      8.65590117	     -1.60306533	    -16.51024211	     12.19651581	     -1.23917370	      3.54871417	     10.97106001	     -5.65087723	     -7.06790757	    -53.44294458	     10.15263485	     -6.67690373	      4.30021274	    -11.39425070	      3.32609833	      1.36152888
      0.89933333	      6.34414436	     -0.62142243	      2.11015807	     -0.35410656	      0.92682994	      0.31080521	     -1.71511558	      8.55262315	     -1.28922312	    -16.07320368	     12.19634005	     -1.04049502	      3.58900636	     11.31341294	     -5.57178386	     -7.49566090	    -52.43941504	     10.10176881	     -7.07159329	      4.15655310	    -11.46527887	      3.19126847	      1.63727357
      0.90350000	      6.39483627	     -0.53494670	      1.72068579	     -0.34930132	      0.92742693	      0.31152354	     -2.35621177	      8.45139794	     -0.98653917	    -15.58600747	     12.21564627	     -0.84491214	      3.65096836	     11.63740469	     -5.48341100	     -7.85831856	    -51.41762786	     10.03320761	     -7.47211221	      3.94733696	    -11.57163660	      3.01956300	      2.04984311
      0.90766667	      6.43348838	     -0.46613526	      1.30041971	     -0.34451044	      0.92794393	      0.31226244	     -2.95855193	      8.35545179	     -0.68267859	    -15.14496966	     12.18784390	     -0.62571808	      3.74960773	     11.95821714	     -5.42885256	     -8.26945719	    -50.37863218	      9.96609237	     -7.82856561	      3.62966305	    -11.65718198	      2.89971907	      2.47237954
      0.91183333	      6.47455356	     -0.38698386	      0.88615295	     -0.33972379	      0.92840852	      0.31300714	     -3.55850043	      8.24535804	     -0.36926248	    -14.71824102	     12.25603936	     -0.45162556	      3.81373974	     12.26491867	     -5.36820112	     -8.68525200	    -49.31249074	      9.84066939	     -8.14893252	      3.43447349	    -11.73485017	      2.73987271	      2.73841973
      0.91600000	      6.51569369	     -0.32540676	      0.47190689	     -0.33494876	      0.92882082	      0.31373116	     -4.15273233	      8.14384312	     -0.06797666	    -14.29366854	     12.27973067	     -0.24920693	      3.88206439	     12.56265177	     -5.32681568	     -9.09724727	    -48.23295753	      9.71935426	     -8.44123928	      3.23546255	    -11.81622620	      2.61157092	      3.08008664
      0.92016667	      6.52026918	     -0.28885052	      0.03776347	     -0.33020316	      0.92910756	      0.31448452	     -4.68061842	      8.06046538	      0.24611285	    -13.91765472	     12.30699604	     -0.03017834	      4.17951374	     12.89921585	     -5.33147405	     -9.54529652	    -47.16378534	      9.58650391	     -8.61425271	      2.43921423	    -11.85423586	      2.52053534	      3.63229357
      0.92433333	      6.56403670	     -0.23223326	     -0.37616501	     -0.32543867	      0.92941919	      0.31518125	     -5.25315403	      7.94595004	      0.51980284	    -13.54097736	     12.32880384	      0.17041513	      4.21620652	     13.16846655	     -5.29633421	     -9.95883555	    -46.04398319	      9.44979423	     -8.85549427	      2.33912519	    -11.93683848	      2.40165676	      3.71760979
      0.92850000	      6.62286266	     -0.19335608	     -0.75507186	     -0.32066061	      0.92970203	      0.31582190	     -5.86429013	      7.84751496	      0.77752626	    -13.11558944	     12.38510903	      0.39239586	      4.27815475	     13.42001783	     -5.26769744	    -10.31221237	    -44.91828633	      9.30496459	     -9.05391202	      2.19090196	    -12.03441273	      2.29432710	      4.08143328
